<svg width="1727" height="220" viewBox="0 0 1727 220" fill="none" xmlns="http://www.w3.org/2000/svg">
<g clip-path="url(#clip0_606_88)">
<mask id="mask0_606_88" style="mask-type:luminance" maskUnits="userSpaceOnUse" x="1309" y="0" width="208" height="208">
<path d="M1517 0H1309V208H1517V0Z" fill="white"/>
</mask>
<g mask="url(#mask0_606_88)">
<path d="M1413 208C1470.44 208 1517 161.438 1517 104C1517 46.5624 1470.44 0 1413 0C1355.56 0 1309 46.5624 1309 104C1309 161.438 1355.56 208 1413 208Z" fill="white"/>
<path d="M1439 78C1424.7 78 1413 89.7 1413 104C1413 118.3 1401.3 130 1387 130C1372.7 130 1361 118.3 1361 104C1361 132.817 1384.18 156 1413 156C1441.82 156 1465 132.817 1465 104C1465 89.7 1453.3 78 1439 78Z" fill="#231D9A"/>
<path d="M1413 52C1384.18 52 1361 75.1832 1361 104C1361 118.3 1372.7 130 1387 130C1401.3 130 1413 118.3 1413 104C1413 89.7 1424.7 78 1439 78C1453.3 78 1465 89.7 1465 104C1465 75.1832 1441.82 52 1413 52Z" fill="#F0263C"/>
<path d="M1339.32 147.354L1335.03 151.643L1365.36 181.978L1369.65 177.688L1339.32 147.354Z" fill="black"/>
<path d="M1358.19 152.749L1345.84 140.833L1341.51 145.166L1353.86 157.083L1358.19 152.749Z" fill="black"/>
<path d="M1359.92 163.15L1371.84 175.5L1376.17 171.166L1364.25 158.816L1359.92 163.15Z" fill="black"/>
<path d="M1352.32 134.354L1348.03 138.644L1378.36 168.979L1382.65 164.689L1352.32 134.354Z" fill="black"/>
<path d="M1461.32 61.7505L1473.67 73.667L1478.01 69.3338L1465.66 57.417L1461.32 61.7505Z" fill="black"/>
<path d="M1459.59 51.35L1447.68 39L1443.34 43.3332L1455.26 55.6832L1459.59 51.35Z" fill="black"/>
<path d="M1474.32 48.7505L1486.67 60.667L1491.01 56.3338L1478.66 44.417L1474.32 48.7505Z" fill="black"/>
<path d="M1472.59 38.35L1460.68 26L1456.34 30.3333L1468.26 42.6832L1472.59 38.35Z" fill="black"/>
<path d="M1454.15 32.5225L1449.86 36.8121L1480.2 67.1467L1484.49 62.857L1454.15 32.5225Z" fill="black"/>
<path d="M1365.36 26.0225L1335.03 56.3571L1339.32 60.6468L1369.65 30.3122L1365.36 26.0225Z" fill="black"/>
<path d="M1378.36 39.0225L1348.03 69.357L1352.32 73.6467L1382.65 43.3121L1378.36 39.0225Z" fill="black"/>
<path d="M1371.86 32.5225L1341.53 62.857L1345.82 67.1467L1376.15 36.8121L1371.86 32.5225Z" fill="black"/>
<path d="M1459.59 156.65L1447.67 169L1443.34 164.666L1455.26 152.316L1459.59 156.65Z" fill="black"/>
<path d="M1461.32 146.251L1473.67 134.334L1478 138.667L1465.65 150.584L1461.32 146.251Z" fill="black"/>
<path d="M1466.09 163.15L1454.17 175.5L1449.84 171.166L1461.76 158.816L1466.09 163.15Z" fill="black"/>
<path d="M1467.82 152.751L1480.17 140.834L1484.5 145.167L1472.15 157.084L1467.82 152.751Z" fill="black"/>
<path d="M1472.59 169.65L1460.67 182L1456.34 177.666L1468.26 165.316L1472.59 169.65Z" fill="black"/>
<path d="M1474.32 159.251L1486.67 147.334L1491 151.667L1478.65 163.584L1474.32 159.251Z" fill="black"/>
</g>
</g>
<g clip-path="url(#clip1_606_88)">
<mask id="mask1_606_88" style="mask-type:luminance" maskUnits="userSpaceOnUse" x="1101" y="0" width="208" height="208">
<path d="M1309 0H1101V208H1309V0Z" fill="white"/>
</mask>
<g mask="url(#mask1_606_88)">
<path d="M1205 208C1262.44 208 1309 161.438 1309 104C1309 46.5624 1262.44 0 1205 0C1147.56 0 1101 46.5624 1101 104C1101 161.438 1147.56 208 1205 208Z" fill="#F0263C"/>
<path d="M1158.88 103.613C1158.88 81.4087 1176.85 63.4339 1199.06 63.4339C1208.57 63.4339 1217.24 66.8175 1224.22 72.3155C1214.92 60.4735 1200.54 52.8604 1184.25 52.8604C1156.13 52.8604 1133.5 75.4875 1133.5 103.613C1133.5 131.738 1156.13 154.365 1184.25 154.365C1200.54 154.365 1214.92 146.752 1224.22 134.91C1217.24 140.408 1208.57 143.792 1199.06 143.792C1176.85 143.792 1158.88 125.817 1158.88 103.613Z" fill="white"/>
<path d="M1242.95 71.7871L1257.22 91.0274L1279.77 83.4026L1266.04 102.919L1280.31 122.16L1257.55 114.981L1243.82 134.497L1243.49 110.544L1220.73 103.365L1243.28 95.7399L1242.95 71.7871Z" fill="white"/>
</g>
</g>
<g clip-path="url(#clip2_606_88)">
<mask id="mask2_606_88" style="mask-type:luminance" maskUnits="userSpaceOnUse" x="893" y="0" width="208" height="208">
<path d="M1101 104C1101 46.5624 1054.44 0 997 0C939.562 0 893 46.5624 893 104C893 161.438 939.562 208 997 208C1054.44 208 1101 161.438 1101 104Z" fill="white"/>
</mask>
<g mask="url(#mask2_606_88)">
<path d="M1101 104C1101 46.5624 1054.44 0 997 0C939.562 0 893 46.5624 893 104C893 161.438 939.562 208 997 208C1054.44 208 1101 161.438 1101 104Z" fill="white"/>
<mask id="mask3_606_88" style="mask-type:luminance" maskUnits="userSpaceOnUse" x="893" y="0" width="208" height="208">
<path d="M997 208C1054.44 208 1101 161.438 1101 104C1101 46.5624 1054.44 0 997 0C939.562 0 893 46.5624 893 104C893 161.438 939.562 208 997 208Z" fill="white"/>
</mask>
<g mask="url(#mask3_606_88)">
<path d="M893 0H1101V208H893V0Z" fill="white"/>
<path d="M997 0H893V112.092H997V0Z" fill="#231D9A"/>
<path d="M890.183 3.72656L891.74 8.51738H896.777L892.702 11.4783L894.259 16.2691L890.183 13.3082L886.108 16.2691L887.665 11.4783L883.589 8.51738H888.627L890.183 3.72656Z" fill="white"/>
<path d="M890.183 26.043L891.74 30.8339H896.777L892.702 33.7947L894.259 38.5855L890.183 35.6247L886.108 38.5855L887.665 33.7947L883.589 30.8339H888.627L890.183 26.043Z" fill="white"/>
<path d="M890.183 48.3604L891.74 53.1511H896.777L892.702 56.1121L894.259 60.9029L890.183 57.9419L886.108 60.9029L887.665 56.1121L883.589 53.1511H888.627L890.183 48.3604Z" fill="white"/>
<path d="M890.183 70.6768L891.74 75.4676H896.777L892.702 78.4284L894.259 83.2192L890.183 80.2584L886.108 83.2192L887.665 78.4284L883.589 75.4676H888.627L890.183 70.6768Z" fill="white"/>
<path d="M890.183 92.9932L891.74 97.784H896.777L892.702 100.745L894.259 105.536L890.183 102.575L886.108 105.536L887.665 100.745L883.589 97.784H888.627L890.183 92.9932Z" fill="white"/>
<path d="M913.8 14.8848L915.357 19.6756H920.394L916.319 22.6364L917.875 27.4273L913.8 24.4664L909.725 27.4273L911.281 22.6364L907.206 19.6756H912.243L913.8 14.8848Z" fill="white"/>
<path d="M913.8 37.2012L915.357 41.992H920.394L916.319 44.9529L917.875 49.7437L913.8 46.7829L909.725 49.7437L911.281 44.9529L907.206 41.992H912.243L913.8 37.2012Z" fill="white"/>
<path d="M913.8 59.5186L915.357 64.3093H920.394L916.319 67.2702L917.875 72.0611L913.8 69.1001L909.725 72.0611L911.281 67.2702L907.206 64.3093H912.243L913.8 59.5186Z" fill="white"/>
<path d="M913.8 81.835L915.357 86.6258H920.394L916.319 89.5867L917.875 94.3775L913.8 91.4167L909.725 94.3775L911.281 89.5867L907.206 86.6258H912.243L913.8 81.835Z" fill="white"/>
<path d="M937.417 3.72656L938.973 8.51738H944.011L939.935 11.4783L941.492 16.2691L937.417 13.3082L933.341 16.2691L934.898 11.4783L930.823 8.51738H935.86L937.417 3.72656Z" fill="white"/>
<path d="M937.417 26.043L938.973 30.8339H944.011L939.935 33.7947L941.492 38.5855L937.417 35.6247L933.341 38.5855L934.898 33.7947L930.823 30.8339H935.86L937.417 26.043Z" fill="white"/>
<path d="M937.417 48.3604L938.973 53.1511H944.011L939.935 56.1121L941.492 60.9029L937.417 57.9419L933.341 60.9029L934.898 56.1121L930.823 53.1511H935.86L937.417 48.3604Z" fill="white"/>
<path d="M937.417 70.6768L938.973 75.4676H944.011L939.935 78.4284L941.492 83.2192L937.417 80.2584L933.341 83.2192L934.898 78.4284L930.823 75.4676H935.86L937.417 70.6768Z" fill="white"/>
<path d="M937.417 92.9932L938.973 97.784H944.011L939.935 100.745L941.492 105.536L937.417 102.575L933.341 105.536L934.898 100.745L930.823 97.784H935.86L937.417 92.9932Z" fill="white"/>
<path d="M961.033 14.8848L962.59 19.6756H967.627L963.552 22.6364L965.109 27.4273L961.033 24.4664L956.958 27.4273L958.515 22.6364L954.439 19.6756H959.477L961.033 14.8848Z" fill="white"/>
<path d="M961.033 37.2012L962.59 41.992H967.627L963.552 44.9529L965.109 49.7437L961.033 46.7829L956.958 49.7437L958.515 44.9529L954.439 41.992H959.477L961.033 37.2012Z" fill="white"/>
<path d="M961.033 59.5186L962.59 64.3093H967.627L963.552 67.2702L965.109 72.0611L961.033 69.1001L956.958 72.0611L958.515 67.2702L954.439 64.3093H959.477L961.033 59.5186Z" fill="white"/>
<path d="M961.033 81.835L962.59 86.6258H967.627L963.552 89.5867L965.109 94.3775L961.033 91.4167L956.958 94.3775L958.515 89.5867L954.439 86.6258H959.477L961.033 81.835Z" fill="white"/>
<path d="M984.65 3.72656L986.207 8.51738H991.244L987.169 11.4783L988.725 16.2691L984.65 13.3082L980.575 16.2691L982.131 11.4783L978.056 8.51738H983.093L984.65 3.72656Z" fill="white"/>
<path d="M984.65 26.043L986.207 30.8339H991.244L987.169 33.7947L988.725 38.5855L984.65 35.6247L980.575 38.5855L982.131 33.7947L978.056 30.8339H983.093L984.65 26.043Z" fill="white"/>
<path d="M984.65 48.3604L986.207 53.1511H991.244L987.169 56.1121L988.725 60.9029L984.65 57.9419L980.575 60.9029L982.131 56.1121L978.056 53.1511H983.093L984.65 48.3604Z" fill="white"/>
<path d="M984.65 70.6768L986.207 75.4676H991.244L987.169 78.4284L988.725 83.2192L984.65 80.2584L980.575 83.2192L982.131 78.4284L978.056 75.4676H983.093L984.65 70.6768Z" fill="white"/>
<path d="M984.65 92.9932L986.207 97.784H991.244L987.169 100.745L988.725 105.536L984.65 102.575L980.575 105.536L982.131 100.745L978.056 97.784H983.093L984.65 92.9932Z" fill="white"/>
<path d="M1150.56 -1.06641H997V15.0976H1150.56V-1.06641Z" fill="#F0263C"/>
<path d="M1110.15 31.2627H997V47.4267H1110.15V31.2627Z" fill="#F0263C"/>
<path d="M1110.15 63.5908H997V79.7548H1110.15V63.5908Z" fill="#F0263C"/>
<path d="M1150.56 95.918H997V112.082H1150.56V95.918Z" fill="#F0263C"/>
<path d="M1149.75 128.246H895.168V144.41H1149.75V128.246Z" fill="#F0263C"/>
<path d="M1149.75 160.573H895.168V176.737H1149.75V160.573Z" fill="#F0263C"/>
<path d="M1149.75 192.902H895.168V209.066H1149.75V192.902Z" fill="#F0263C"/>
</g>
</g>
</g>
<g clip-path="url(#clip3_606_88)">
<mask id="mask4_606_88" style="mask-type:luminance" maskUnits="userSpaceOnUse" x="685" y="0" width="208" height="208">
<path d="M893 0H685V208H893V0Z" fill="white"/>
</mask>
<g mask="url(#mask4_606_88)">
<path d="M789 208C846.437 208 893 161.437 893 104C893 46.5623 846.437 0 789 0C731.562 0 685 46.5623 685 104C685 161.437 731.562 208 789 208Z" fill="white"/>
<path d="M690.85 69.3333H886.933C872.85 29.0333 834.283 0 789 0C743.717 0 705.15 29.0333 690.85 69.3333Z" fill="#FF7700"/>
<path d="M887.15 138.667H690.85C705.15 178.968 743.717 208 789 208C834.283 208 872.85 178.968 887.15 138.667Z" fill="#005B13"/>
<path fill-rule="evenodd" clip-rule="evenodd" d="M766.25 104C766.25 91.4353 776.5 81.25 789.143 81.25C801.786 81.25 812.036 91.4353 812.036 104C812.036 116.565 801.787 126.75 789.143 126.75C776.5 126.75 766.25 116.565 766.25 104ZM802.207 119.188C802.078 118.785 801.703 118.49 801.255 118.49C800.701 118.49 800.251 118.937 800.251 119.488C800.251 119.846 800.442 120.157 800.726 120.333C799.795 120.987 798.808 121.566 797.769 122.057C797.71 121.561 797.291 121.175 796.776 121.175C796.222 121.175 795.772 121.621 795.772 122.172C795.772 122.408 795.858 122.623 795.996 122.794C794.958 123.168 793.877 123.455 792.767 123.656C792.779 123.593 792.787 123.528 792.787 123.462C792.787 122.911 792.337 122.464 791.783 122.464C791.229 122.464 790.779 122.911 790.779 123.462C790.779 123.623 790.82 123.772 790.888 123.906C790.312 123.955 789.732 123.986 789.143 123.986C788.602 123.986 788.066 123.959 787.534 123.916C787.618 123.771 787.669 123.605 787.669 123.426C787.669 122.876 787.219 122.429 786.665 122.429C786.111 122.429 785.661 122.876 785.661 123.426C785.661 123.518 785.677 123.604 785.701 123.688C784.521 123.486 783.375 123.186 782.275 122.789C782.517 122.607 782.675 122.321 782.675 121.996C782.675 121.445 782.226 120.998 781.671 120.998C781.117 120.998 780.667 121.445 780.667 121.996C780.667 122.038 780.674 122.079 780.68 122.121L780.682 122.131C779.649 121.654 778.664 121.094 777.735 120.457C778.119 120.317 778.393 119.953 778.393 119.524C778.393 118.973 777.943 118.526 777.389 118.526C776.835 118.526 776.429 118.936 776.392 119.455C775.434 118.673 774.552 117.803 773.753 116.86C774.279 116.829 774.697 116.4 774.697 115.869C774.697 115.338 774.248 114.871 773.693 114.871C773.248 114.871 772.875 115.162 772.743 115.561C772.067 114.614 771.469 113.61 770.964 112.552C770.973 112.552 770.983 112.553 770.993 112.555C771.004 112.556 771.016 112.558 771.028 112.558C771.584 112.558 772.032 112.111 772.032 111.56C772.032 111.008 771.583 110.562 771.028 110.562C770.723 110.562 770.453 110.701 770.27 110.914C769.858 109.803 769.547 108.644 769.338 107.451C769.454 107.498 769.58 107.525 769.713 107.525C770.268 107.525 770.717 107.078 770.717 106.527C770.717 105.976 770.268 105.529 769.713 105.529C769.487 105.529 769.281 105.606 769.113 105.732C769.064 105.161 769.033 104.585 769.033 104.001C769.033 103.417 769.059 102.87 769.106 102.312C769.269 102.425 769.465 102.492 769.678 102.492C770.232 102.492 770.682 102.045 770.682 101.494C770.682 100.943 770.232 100.496 769.678 100.496C769.557 100.496 769.443 100.521 769.335 100.56C769.542 99.3765 769.851 98.2282 770.259 97.1258C770.442 97.3589 770.725 97.5117 771.047 97.5117C771.601 97.5117 772.051 97.0652 772.051 96.5137C772.051 95.9624 771.601 95.5163 771.047 95.5163C771.017 95.5163 770.989 95.5203 770.96 95.5244C770.951 95.5256 770.943 95.5268 770.934 95.528C771.439 94.4604 772.032 93.4424 772.71 92.4875C772.859 92.8545 773.219 93.1145 773.641 93.1145C774.196 93.1145 774.645 92.6674 774.645 92.1165C774.645 91.6066 774.259 91.1913 773.762 91.1311C774.496 90.2665 775.301 89.4657 776.17 88.7355C776.261 89.1927 776.667 89.5374 777.154 89.5374C777.708 89.5374 778.158 89.0909 778.158 88.54C778.158 88.1456 777.925 87.8082 777.592 87.6459C778.564 86.9663 779.598 86.37 780.687 85.8676C780.676 85.924 780.669 85.982 780.669 86.0411C780.669 86.592 781.118 87.0385 781.673 87.0385C782.227 87.0385 782.676 86.592 782.676 86.0411C782.676 85.7016 782.505 85.4021 782.244 85.2218C783.334 84.8264 784.469 84.5275 785.637 84.323C785.636 84.3346 785.634 84.3461 785.633 84.3578C785.63 84.3828 785.626 84.4077 785.626 84.4337C785.626 84.9846 786.076 85.4316 786.63 85.4316C787.185 85.4316 787.634 84.9846 787.634 84.4337C787.634 84.3093 787.608 84.1911 787.567 84.081C788.088 84.0404 788.613 84.014 789.144 84.014C789.735 84.014 790.318 84.0446 790.896 84.0942C790.845 84.2148 790.815 84.3473 790.815 84.4869C790.815 85.0378 791.265 85.4843 791.819 85.4843C792.374 85.4843 792.823 85.0378 792.823 84.4869C792.823 84.4439 792.817 84.4026 792.81 84.3611L792.809 84.3514C793.954 84.5607 795.067 84.8634 796.135 85.2572C795.978 85.4332 795.879 85.6631 795.879 85.9172C795.879 86.4682 796.328 86.9152 796.883 86.9152C797.438 86.9152 797.839 86.5081 797.879 85.9937C798.894 86.4813 799.858 87.0549 800.77 87.6976C800.461 87.8679 800.251 88.191 800.251 88.5663C800.251 89.1173 800.7 89.5638 801.254 89.5638C801.719 89.5638 802.106 89.2486 802.22 88.8226C803.07 89.5468 803.861 90.3377 804.579 91.1913C804.181 91.3241 803.893 91.6931 803.893 92.1328C803.893 92.6838 804.343 93.1308 804.897 93.1308C805.242 93.1308 805.545 92.9579 805.726 92.6953C806.349 93.5969 806.899 94.5522 807.37 95.5522C807.367 95.5522 807.363 95.5517 807.36 95.5511C807.356 95.5506 807.353 95.55 807.349 95.55C806.795 95.55 806.345 95.9966 806.345 96.548C806.345 97.0995 806.795 97.546 807.349 97.546C807.634 97.546 807.889 97.4274 808.072 97.2392C808.473 98.349 808.776 99.5041 808.975 100.694C808.858 100.646 808.729 100.619 808.593 100.619C808.038 100.619 807.589 101.066 807.589 101.617C807.589 102.167 808.038 102.615 808.593 102.615C808.815 102.615 809.018 102.54 809.186 102.419C809.226 102.941 809.254 103.467 809.254 104C809.254 104.578 809.223 105.149 809.175 105.715C809.03 105.632 808.862 105.582 808.682 105.582C808.128 105.582 807.678 106.028 807.678 106.579C807.678 107.13 808.128 107.577 808.682 107.577C808.769 107.577 808.852 107.563 808.933 107.542C808.728 108.677 808.433 109.782 808.043 110.842C807.861 110.648 807.602 110.526 807.314 110.526C806.76 110.526 806.31 110.973 806.31 111.524C806.31 112.074 806.76 112.521 807.314 112.521C807.318 112.521 807.321 112.52 807.325 112.52C807.329 112.519 807.333 112.519 807.337 112.519C806.855 113.534 806.288 114.5 805.648 115.413C805.469 115.14 805.161 114.958 804.808 114.958C804.254 114.958 803.805 115.405 803.805 115.956C803.805 116.399 804.096 116.769 804.498 116.9C803.798 117.722 803.031 118.487 802.207 119.188ZM789.936 93.1504C790.057 94.558 789.983 95.9756 789.716 97.3631L789.203 100.03V100.078L789.198 100.054L789.192 100.078V100.03L788.68 97.3615C788.413 95.975 788.339 94.5584 788.46 93.1519L789.196 84.5454H789.199L789.936 93.1504ZM788.35 114.85C788.229 113.442 788.303 112.024 788.57 110.637L789.082 107.97V107.922L789.088 107.946L789.094 107.922V107.97L789.606 110.638C789.873 112.025 789.946 113.441 789.826 114.848L789.09 123.454H789.087L788.35 114.85ZM787.955 97.4427C787.849 96.0341 787.549 94.6459 787.063 93.3175L784.094 85.194L784.091 85.1949L785.637 93.6959C785.89 95.0856 786.333 96.4347 786.954 97.7063L788.149 100.153L788.162 100.199V100.174L788.172 100.196L788.16 100.15L787.955 97.4427ZM791.222 114.683C790.737 113.354 790.436 111.966 790.33 110.557L790.125 107.85L790.113 107.804L790.124 107.826V107.801L790.136 107.847L791.331 110.294C791.953 111.565 792.396 112.914 792.648 114.304L794.195 122.805L794.191 122.806L791.222 114.683ZM786.276 97.9699C785.804 96.6366 785.15 95.3724 784.332 94.2131L779.333 87.1245L779.331 87.126L783.054 94.9428C783.663 96.2202 784.444 97.4106 785.378 98.4803L787.174 100.538L787.198 100.58L787.191 100.556L787.208 100.574L787.184 100.533L786.276 97.9699ZM793.954 113.787C793.136 112.627 792.482 111.363 792.01 110.03L791.102 107.467L791.078 107.426L791.094 107.444L791.088 107.42L791.112 107.461L792.908 109.52C793.841 110.589 794.623 111.78 795.232 113.057L798.955 120.874L798.953 120.875L793.954 113.787ZM784.791 98.9073C783.985 97.74 783.022 96.6862 781.927 95.7746L775.239 90.2043L775.237 90.2065L780.884 96.8059C781.807 97.8845 782.875 98.8345 784.057 99.629L786.332 101.158L786.367 101.192L786.354 101.171L786.375 101.184L786.34 101.15L784.791 98.9073ZM796.357 112.225C795.263 111.314 794.299 110.26 793.494 109.093L791.944 106.849L791.91 106.816L791.931 106.829L791.918 106.808L791.952 106.841L794.227 108.371C795.41 109.165 796.477 110.115 797.4 111.194L803.047 117.793L803.045 117.795L796.357 112.225ZM783.603 100.192C782.518 99.27 781.311 98.4982 780.016 97.8978L772.094 94.2248L772.093 94.2274L779.278 99.1598C780.453 99.9658 781.733 100.611 783.083 101.077L785.682 101.973L785.724 101.997L785.706 101.98L785.729 101.987L785.687 101.963L783.603 100.192ZM798.269 110.102C796.973 109.502 795.766 108.73 794.682 107.808L792.597 106.037L792.556 106.013L792.579 106.02L792.561 106.003L792.603 106.027L795.202 106.923C796.552 107.389 797.832 108.034 799.006 108.84L806.192 113.773L806.19 113.775L798.269 110.102ZM782.793 101.736C781.504 101.122 780.136 100.685 778.726 100.436L770.111 98.9114L770.11 98.9146L778.345 101.844C779.691 102.323 781.097 102.619 782.524 102.724L785.269 102.926L785.315 102.938L785.294 102.927L785.318 102.928L785.272 102.915L782.793 101.736ZM799.558 107.564C798.149 107.314 796.781 106.877 795.491 106.264L793.013 105.084L792.966 105.072L792.991 105.073L792.969 105.062L793.015 105.074L795.761 105.276C797.187 105.381 798.593 105.677 799.939 106.156L808.174 109.085L808.173 109.088L799.558 107.564ZM782.416 103.435C781.01 103.172 779.573 103.098 778.147 103.218L769.425 103.945V103.948L778.148 104.674C779.574 104.793 781.009 104.72 782.415 104.457L785.119 103.951H785.168L785.143 103.946L785.168 103.94H785.119L782.416 103.435ZM800.139 104.782C798.712 104.902 797.275 104.828 795.869 104.565L793.166 104.06H793.118L793.142 104.054L793.118 104.048H793.166L795.871 103.543C797.276 103.28 798.712 103.207 800.137 103.326L808.86 104.052V104.055L800.139 104.782ZM782.497 105.172C781.069 105.277 779.662 105.573 778.316 106.052L770.082 108.982L770.083 108.985L778.699 107.459C780.108 107.21 781.475 106.773 782.764 106.16L785.243 104.98L785.29 104.968H785.265L785.287 104.958L785.24 104.97L782.497 105.172ZM799.969 101.948C798.622 102.427 797.216 102.723 795.788 102.828L793.044 103.03L792.998 103.042L793.019 103.032H792.994L793.041 103.019L795.521 101.84C796.809 101.227 798.177 100.79 799.585 100.541L808.201 99.0149L808.202 99.0181L799.969 101.948ZM783.031 106.829C781.68 107.295 780.398 107.94 779.223 108.747L772.039 113.679L772.041 113.682L779.963 110.008C781.258 109.407 782.464 108.636 783.548 107.715L785.634 105.943L785.676 105.919L785.652 105.926L785.671 105.909L785.629 105.933L783.031 106.829ZM799.062 99.2531C797.887 100.06 796.606 100.705 795.254 101.171L792.656 102.067L792.615 102.09L792.634 102.074L792.609 102.081L792.651 102.057L794.737 100.285C795.821 99.3639 797.028 98.5926 798.322 97.9921L806.245 94.3181L806.246 94.3207L799.062 99.2531ZM783.981 108.293C782.798 109.088 781.73 110.039 780.806 111.119L775.16 117.718L775.163 117.72L781.851 112.148C782.944 111.237 783.907 110.184 784.712 109.017L786.262 106.772L786.297 106.739L786.275 106.751L786.289 106.731L786.254 106.765L783.981 108.293ZM797.479 96.8812C796.555 97.9609 795.487 98.9114 794.304 99.7064L792.03 101.235L791.996 101.269L792.01 101.248L791.988 101.261L792.022 101.227L793.572 98.9826C794.378 97.8158 795.341 96.7625 796.434 95.852L803.122 90.2801L803.125 90.2823L797.479 96.8812ZM785.284 109.465C784.349 110.535 783.567 111.726 782.958 113.004L779.236 120.82L779.238 120.822L784.237 113.732C785.054 112.573 785.708 111.31 786.18 109.978L787.089 107.413L787.113 107.372L787.095 107.39L787.103 107.367L787.079 107.408L785.284 109.465ZM795.327 94.9955C794.719 96.274 793.936 97.4648 793.002 98.5351L791.207 100.592L791.183 100.633L791.19 100.61L791.173 100.628L791.197 100.586L792.105 98.0222C792.578 96.6898 793.231 95.4267 794.048 94.268L799.047 87.1783L799.05 87.1798L795.327 94.9955ZM786.848 110.264C786.226 111.537 785.783 112.886 785.531 114.277L783.985 122.777L783.989 122.778L786.958 114.653C787.443 113.325 787.743 111.938 787.85 110.53L788.054 107.822L788.067 107.776L788.055 107.797L788.056 107.773L788.044 107.819L786.848 110.264ZM792.756 93.7229C792.503 95.1136 792.06 96.4633 791.438 97.7359L790.243 100.181L790.23 100.227L790.231 100.203L790.22 100.224L790.232 100.178L790.437 97.4697C790.543 96.0621 790.843 94.675 791.328 93.347L794.298 85.2218L794.301 85.2229L792.756 93.7229ZM789.143 100.078C786.964 100.078 785.196 101.834 785.196 104C785.196 106.166 786.964 107.922 789.143 107.922C791.323 107.922 793.09 106.166 793.09 104C793.09 101.834 791.323 100.078 789.143 100.078Z" fill="#231D9A"/>
</g>
</g>
<g clip-path="url(#clip4_606_88)">
<mask id="mask5_606_88" style="mask-type:luminance" maskUnits="userSpaceOnUse" x="477" y="0" width="208" height="208">
<path d="M685 0H477V208H685V0Z" fill="white"/>
</mask>
<g mask="url(#mask5_606_88)">
<path d="M581 208C638.437 208 685 161.437 685 104C685 46.5623 638.437 0 581 0C523.562 0 477 46.5623 477 104C477 161.437 523.562 208 581 208Z" fill="#231D9A"/>
<path fill-rule="evenodd" clip-rule="evenodd" d="M583.802 28.0365L581 19.4131L578.198 28.0365H569.131L576.467 33.3661L573.665 41.9897L581 36.66L588.336 41.9897L585.534 33.3661L592.869 28.0365H583.802ZM547.138 37.7432L544.336 29.1198L541.534 37.7432H532.467L539.803 43.0728L537 51.6964L544.336 46.3667L551.672 51.6964L548.87 43.0728L556.205 37.7432H547.138ZM516.603 56.8531L519.405 65.4765H528.472L521.136 70.8061L523.938 79.4297L516.603 74.1L509.267 79.4297L512.069 70.8061L504.734 65.4765H513.801L516.603 56.8531ZM511.085 101.53L508.283 92.9064L505.481 101.53H496.414L503.749 106.859L500.947 115.483L508.283 110.153L515.618 115.483L512.816 106.859L520.152 101.53H511.085ZM517.989 130.346L520.791 138.97H529.859L522.523 144.299L525.325 152.923L517.989 147.594L510.654 152.923L513.456 144.299L506.12 138.97H515.188L517.989 130.346ZM547.138 165.317L544.336 156.693L541.534 165.317H532.467L539.803 170.646L537 179.269L544.336 173.94L551.672 179.269L548.87 170.646L556.205 165.317H547.138ZM581.776 166.4L584.578 175.023H593.645L586.31 180.352L589.112 188.976L581.776 183.647L574.44 188.976L577.243 180.352L569.907 175.023H578.974L581.776 166.4ZM620.631 165.317L617.83 156.693L615.028 165.317H605.96L613.296 170.646L610.494 179.269L617.83 173.94L625.166 179.269L622.363 170.646L629.699 165.317H620.631ZM645.563 128.96L648.365 137.583H657.432L650.096 142.912L652.899 151.536L645.563 146.207L638.227 151.536L641.029 142.912L633.694 137.583H642.761L645.563 128.96ZM656.685 101.53L653.883 92.9064L651.081 101.53H642.014L649.349 106.859L646.547 115.483L653.883 110.153L661.219 115.483L658.416 106.859L665.752 101.53H656.685ZM644.177 56.8531L646.978 65.4765H656.045L648.71 70.8061L651.512 79.4297L644.177 74.1L636.84 79.4297L639.642 70.8061L632.307 65.4765H641.374L644.177 56.8531ZM620.631 37.7432L617.83 29.1198L615.028 37.7432H605.96L613.296 43.0728L610.494 51.6964L617.83 46.3667L625.166 51.6964L622.363 43.0728L629.699 37.7432H620.631Z" fill="#FFD400"/>
</g>
</g>
<path d="M-11 0H365C422.438 0 469 46.5624 469 104C469 161.438 422.438 208 365 208H-11V0Z" fill="#2C7979"/>
<path d="M273 104C273 53.1898 314.19 12 365 12C415.81 12 457 53.1898 457 104C457 154.81 415.81 196 365 196C314.19 196 273 154.81 273 104Z" fill="#013232"/>
<path d="M405.116 101.133L370.828 43.9863L366.028 51.9863L394.488 99.413H323.852V110.846H394.484L366.024 158.273L370.824 166.273L405.112 109.126C405.437 108.61 405.695 107.99 405.872 107.302C406.049 106.614 406.14 105.874 406.14 105.126C406.14 104.378 406.049 103.638 405.872 102.951C405.695 102.263 405.437 101.642 405.112 101.126L405.116 101.133Z" fill="#2C7979"/>
<mask id="mask6_606_88" style="mask-type:luminance" maskUnits="userSpaceOnUse" x="1517" y="0" width="208" height="208">
<path d="M1725 0H1517V208H1725V0Z" fill="white"/>
</mask>
<g mask="url(#mask6_606_88)">
<path d="M1655.67 202.151V5.85059C1695.97 20.1506 1725 58.7172 1725 104C1725 149.284 1695.97 187.851 1655.67 202.151Z" fill="#0B7D0F"/>
<path d="M1655.67 5.85C1644.83 2.16667 1633.13 0 1621 0C1608.87 0 1597.17 2.16667 1586.33 5.85V201.933C1597.17 205.833 1608.87 208 1621 208C1633.13 208 1644.83 205.833 1655.67 202.15V5.85Z" fill="white"/>
<path d="M1586.33 5.85059V201.934C1546.03 187.85 1517 149.284 1517 104C1517 58.7172 1546.03 20.1506 1586.33 5.85059Z" fill="#0B7D0F"/>
</g>
<g clip-path="url(#clip5_606_88)">
<mask id="mask7_606_88" style="mask-type:luminance" maskUnits="userSpaceOnUse" x="1725" y="12" width="208" height="208">
<path d="M1933 12H1725V220H1933V12Z" fill="white"/>
</mask>
<g mask="url(#mask7_606_88)">
<path d="M1829 220C1886.44 220 1933 173.438 1933 116C1933 58.5624 1886.44 12 1829 12C1771.56 12 1725 58.5624 1725 116C1725 173.438 1771.56 220 1829 220Z" fill="white"/>
<path d="M1725 116.001C1725 154.568 1746.02 188.151 1777 206.135V25.8682C1746.02 43.8515 1725 77.435 1725 116.001Z" fill="#F0263C"/>
</g>
</g>
<defs>
<clipPath id="clip0_606_88">
<rect width="208" height="208" fill="white" transform="translate(1309)"/>
</clipPath>
<clipPath id="clip1_606_88">
<rect width="208" height="208" fill="white" transform="translate(1101)"/>
</clipPath>
<clipPath id="clip2_606_88">
<rect width="208" height="208" fill="white" transform="translate(893)"/>
</clipPath>
<clipPath id="clip3_606_88">
<rect width="208" height="208" fill="white" transform="translate(685)"/>
</clipPath>
<clipPath id="clip4_606_88">
<rect width="208" height="208" fill="white" transform="translate(477)"/>
</clipPath>
<clipPath id="clip5_606_88">
<rect width="208" height="208" fill="white" transform="translate(1725 12)"/>
</clipPath>
</defs>
</svg>
